<svg id="Livello_2" data-name="Livello 2" xmlns="http://www.w3.org/2000/svg" viewBox="0 0 247 248"><defs><style>.cls-1{fill:#fff;}</style></defs><path class="cls-1" d="M80.64,216.09A102.34,102.34,0,0,1,24.7,147.56a4,4,0,0,0-7.78,1.85,110.41,110.41,0,0,0,60.34,73.92,3.92,3.92,0,0,0,1.69.38,4,4,0,0,0,1.69-7.62Z"/><path class="cls-1" d="M222.3,161.4a4,4,0,0,0-5.24,2.13,102.3,102.3,0,0,1-66.65,58.41,4,4,0,0,0,1.05,7.85,3.86,3.86,0,0,0,1.06-.14,110.39,110.39,0,0,0,71.9-63A4,4,0,0,0,222.3,161.4Z"/><path class="cls-1" d="M166.36,31.92a101.82,101.82,0,0,1,54.1,61.85,4,4,0,0,0,3.82,2.81,3.84,3.84,0,0,0,1.19-.19,4,4,0,0,0,2.62-5,109.76,109.76,0,0,0-58.35-66.71,4,4,0,1,0-3.38,7.24Z"/><path class="cls-1" d="M94.09,18.46A110,110,0,0,0,26.51,73a4,4,0,0,0,7.07,3.73A102,102,0,0,1,96.23,26.16a4,4,0,0,0-2.14-7.7Z"/><path class="cls-1" d="M229,103.09a17.45,17.45,0,1,0,17.46,17.43A17.48,17.48,0,0,0,229,103.09Zm0,26.9a9.47,9.47,0,1,1,9.46-9.47A9.49,9.49,0,0,1,229,130Z"/><path class="cls-1" d="M123.51,212.07A17.46,17.46,0,1,0,141,229.53,17.48,17.48,0,0,0,123.51,212.07Zm0,26.93a9.47,9.47,0,1,1,9.46-9.47A9.47,9.47,0,0,1,123.51,239Z"/><path class="cls-1" d="M35.42,120.52A17.46,17.46,0,1,0,18,138,17.48,17.48,0,0,0,35.42,120.52ZM18,111.06a9.47,9.47,0,1,1-9.47,9.46A9.49,9.49,0,0,1,18,111.06Z"/><path class="cls-1" d="M123.51,1A17.46,17.46,0,1,0,141,18.47,17.46,17.46,0,0,0,123.51,1Zm0,26.92A9.47,9.47,0,1,1,133,18.47,9.47,9.47,0,0,1,123.51,27.93Z"/><path class="cls-1" d="M99.21,165.07a3.94,3.94,0,0,1-2.79-1.16L59.46,127a4.07,4.07,0,0,1,0-5.74L96.75,83.93a4,4,0,0,1,5.6,5.6L67.79,124.09,102,158.31a4,4,0,0,1-2.8,6.76Z"/><path class="cls-1" d="M147.77,82.77a3.94,3.94,0,0,1,2.8,1.16l37,36.95a4.06,4.06,0,0,1,0,5.74l-37.3,37.29a4,4,0,0,1-5.59-5.6l34.56-34.56L145,89.53a4,4,0,0,1,2.8-6.76Z"/><path class="cls-1" d="M107.5,124a10.8,10.8,0,1,1-10.8-10.79A10.82,10.82,0,0,1,107.5,124Z"/><path class="cls-1" d="M161.29,124a10.79,10.79,0,1,1-10.79-10.79A10.81,10.81,0,0,1,161.29,124Z"/><path class="cls-1" d="M134.39,124a10.79,10.79,0,1,1-10.79-10.79A10.81,10.81,0,0,1,134.39,124Z"/></svg>
