<svg id="Livello_2" data-name="Livello 2" xmlns="http://www.w3.org/2000/svg" xmlns:xlink="http://www.w3.org/1999/xlink" viewBox="0 0 768 248"><defs><style>.cls-1{fill:url(#Sfumatura_senza_nome_55);}</style><linearGradient id="Sfumatura_senza_nome_55" x1="180.78" y1="-88.16" x2="567.85" y2="298.91" gradientUnits="userSpaceOnUse"><stop offset="0" stop-color="#e72868"/><stop offset="0.26" stop-color="#8c1a7b"/><stop offset="0.52" stop-color="#2e0c8e"/><stop offset="0.57" stop-color="#4d1188"/><stop offset="0.68" stop-color="#83197c"/><stop offset="0.78" stop-color="#ae1f74"/><stop offset="0.87" stop-color="#cd246d"/><stop offset="0.94" stop-color="#e02769"/><stop offset="1" stop-color="#e72868"/></linearGradient></defs><title>Tavola disegno 9</title><path class="cls-1" d="M80.64,216.09A102.34,102.34,0,0,1,24.7,147.56a4,4,0,0,0-7.78,1.85,110.41,110.41,0,0,0,60.34,73.92,3.92,3.92,0,0,0,1.69.38,4,4,0,0,0,1.69-7.62Z"/><path class="cls-1" d="M222.3,161.4a4,4,0,0,0-5.24,2.13,102.3,102.3,0,0,1-66.65,58.41,4,4,0,0,0,1.05,7.85,3.86,3.86,0,0,0,1.06-.14,110.39,110.39,0,0,0,71.9-63A4,4,0,0,0,222.3,161.4Z"/><path class="cls-1" d="M166.36,31.92a101.82,101.82,0,0,1,54.1,61.85,4,4,0,0,0,3.82,2.81,3.84,3.84,0,0,0,1.19-.19,4,4,0,0,0,2.62-5,109.76,109.76,0,0,0-58.35-66.71,4,4,0,1,0-3.38,7.24Z"/><path class="cls-1" d="M94.09,18.46A110,110,0,0,0,26.51,73a4,4,0,0,0,7.07,3.73A102,102,0,0,1,96.23,26.16a4,4,0,0,0-2.14-7.7Z"/><path class="cls-1" d="M229,103.09a17.45,17.45,0,1,0,17.46,17.43A17.48,17.48,0,0,0,229,103.09Zm0,26.9a9.47,9.47,0,1,1,9.46-9.47A9.49,9.49,0,0,1,229,130Z"/><path class="cls-1" d="M123.51,212.07A17.46,17.46,0,1,0,141,229.53,17.48,17.48,0,0,0,123.51,212.07Zm0,26.93a9.47,9.47,0,1,1,9.46-9.47A9.47,9.47,0,0,1,123.51,239Z"/><path class="cls-1" d="M35.42,120.52A17.46,17.46,0,1,0,18,138,17.48,17.48,0,0,0,35.42,120.52ZM18,111.06a9.47,9.47,0,1,1-9.47,9.46A9.49,9.49,0,0,1,18,111.06Z"/><path class="cls-1" d="M123.51,1A17.46,17.46,0,1,0,141,18.47,17.46,17.46,0,0,0,123.51,1Zm0,26.92A9.47,9.47,0,1,1,133,18.47,9.47,9.47,0,0,1,123.51,27.93Z"/><path class="cls-1" d="M99.21,165.07a3.94,3.94,0,0,1-2.79-1.16L59.46,127a4.07,4.07,0,0,1,0-5.74L96.75,83.93a4,4,0,0,1,5.6,5.6L67.79,124.09,102,158.31a4,4,0,0,1-2.8,6.76Z"/><path class="cls-1" d="M147.77,82.77a3.94,3.94,0,0,1,2.8,1.16l37,36.95a4.06,4.06,0,0,1,0,5.74l-37.3,37.29a4,4,0,0,1-5.59-5.6l34.56-34.56L145,89.53a4,4,0,0,1,2.8-6.76Z"/><path class="cls-1" d="M107.5,124a10.8,10.8,0,1,1-10.8-10.79A10.82,10.82,0,0,1,107.5,124Z"/><path class="cls-1" d="M161.29,124a10.79,10.79,0,1,1-10.79-10.79A10.81,10.81,0,0,1,161.29,124Z"/><path class="cls-1" d="M134.39,124a10.79,10.79,0,1,1-10.79-10.79A10.81,10.81,0,0,1,134.39,124Z"/><path class="cls-1" d="M364.42,104.18V111H336V74.3h27.74v6.81h-19.3v8h17v6.61h-17v8.49Z"/><path class="cls-1" d="M404.84,74.3V111h-7l-18.3-22.29V111h-8.39V74.3h7l18.24,22.28V74.3Z"/><path class="cls-1" d="M447.2,74.3V111h-8.49V96H422v15h-8.5V74.3H422V88.77h16.67V74.3Z"/><path class="cls-1" d="M480.08,103.13H463L459.79,111h-8.71l16.36-36.7h8.39L492.24,111h-8.91Zm-2.67-6.45-5.83-14.05-5.82,14.05Z"/><path class="cls-1" d="M529.73,74.3V111h-7l-18.3-22.29V111h-8.39V74.3h7l18.25,22.28V74.3Z"/><path class="cls-1" d="M545.85,109.19a18.22,18.22,0,0,1-7.13-6.77,19.68,19.68,0,0,1,0-19.55,18.22,18.22,0,0,1,7.13-6.77,21.23,21.23,0,0,1,10.2-2.43,21.52,21.52,0,0,1,8.62,1.67,17.3,17.3,0,0,1,6.48,4.83l-5.46,5a11.73,11.73,0,0,0-9.22-4.3,12.28,12.28,0,0,0-6.08,1.49,10.55,10.55,0,0,0-4.17,4.18,13.07,13.07,0,0,0,0,12.16,10.59,10.59,0,0,0,4.17,4.17,12.28,12.28,0,0,0,6.08,1.49,11.65,11.65,0,0,0,9.22-4.35l5.46,5a17.11,17.11,0,0,1-6.5,4.88,21.58,21.58,0,0,1-8.66,1.68A21.14,21.14,0,0,1,545.85,109.19Z"/><path class="cls-1" d="M605.28,104.18V111H576.86V74.3H604.6v6.81H585.3v8h17.05v6.61H585.3v8.49Z"/><path class="cls-1" d="M645.44,111l-.05-22-10.8,18.14h-3.83L620,89.45V111h-8V74.3h7L632.8,97.1l13.53-22.8h7l.11,36.7Z"/><path class="cls-1" d="M690.53,104.18V111H662.12V74.3h27.73v6.81H670.56v8h17v6.61h-17v8.49Z"/><path class="cls-1" d="M731,74.3V111h-7l-18.3-22.29V111h-8.39V74.3h7l18.24,22.28V74.3Z"/><path class="cls-1" d="M747.26,81.22H735.51V74.3h32v6.92H755.76V111h-8.5Z"/><path class="cls-1" d="M339.86,173.05a16.55,16.55,0,0,1-6.06-3.33l1.94-4.09a16.14,16.14,0,0,0,5.37,3.07,19.93,19.93,0,0,0,6.74,1.18q4.56,0,6.82-1.55a4.77,4.77,0,0,0,2.25-4.12,4,4,0,0,0-1.23-3.06,8.23,8.23,0,0,0-3-1.81q-1.81-.63-5.11-1.41a53,53,0,0,1-6.69-2,10.92,10.92,0,0,1-4.35-3.07,8.15,8.15,0,0,1-1.81-5.58,9.45,9.45,0,0,1,1.55-5.29,10.53,10.53,0,0,1,4.69-3.78,19.09,19.09,0,0,1,7.81-1.42,24.72,24.72,0,0,1,6.4.84,17.27,17.27,0,0,1,5.4,2.41l-1.73,4.2a19.05,19.05,0,0,0-4.93-2.23,18.66,18.66,0,0,0-5.14-.76q-4.46,0-6.68,1.63a5,5,0,0,0-2.23,4.19,4,4,0,0,0,1.26,3.07,8.59,8.59,0,0,0,3.12,1.83,45.25,45.25,0,0,0,5.06,1.39,51.31,51.31,0,0,1,6.66,2,11.16,11.16,0,0,1,4.32,3,8,8,0,0,1,1.81,5.5,9.34,9.34,0,0,1-1.57,5.27,10.56,10.56,0,0,1-4.78,3.78,19.83,19.83,0,0,1-7.86,1.38A24.94,24.94,0,0,1,339.86,173.05Z"/><path class="cls-1" d="M376.48,141.78H363.89v-4.56h30.36v4.56H381.67v32.14h-5.19Z"/><path class="cls-1" d="M403.06,170.14c-2.73-2.79-4.09-6.82-4.09-12.06V137.22h5.24v20.65q0,11.81,10.33,11.8,5,0,7.71-2.91t2.67-8.89V137.22H430v20.86q0,7.92-4.09,12.09t-11.43,4.16C409.59,174.33,405.79,172.94,403.06,170.14Z"/><path class="cls-1" d="M440.76,137.22h15.46a22.32,22.32,0,0,1,10.33,2.3,16.94,16.94,0,0,1,7,6.48,19.62,19.62,0,0,1,0,19.13,16.94,16.94,0,0,1-7,6.48,22.32,22.32,0,0,1-10.33,2.31H440.76Zm15.15,32.13a17,17,0,0,0,7.84-1.72,12.56,12.56,0,0,0,5.21-4.86,15,15,0,0,0,0-14.42,12.45,12.45,0,0,0-5.21-4.84,16.92,16.92,0,0,0-7.84-1.73H446v27.57Z"/><path class="cls-1" d="M484.06,137.22h5.25v36.7h-5.25Z"/><path class="cls-1" d="M506.87,171.9a18.07,18.07,0,0,1-7-6.74,19.39,19.39,0,0,1,0-19.19,18.07,18.07,0,0,1,7-6.74,21.67,21.67,0,0,1,20,0,18,18,0,0,1,7,6.71,19.64,19.64,0,0,1,0,19.25,17.92,17.92,0,0,1-7,6.71,21.75,21.75,0,0,1-20,0Zm17.28-4.07a13.41,13.41,0,0,0,5.08-5.06,14.9,14.9,0,0,0,0-14.42,13.46,13.46,0,0,0-5.08-5,14.36,14.36,0,0,0-7.27-1.84,14.65,14.65,0,0,0-7.31,1.84,13.41,13.41,0,0,0-5.14,5,14.9,14.9,0,0,0,0,14.42,13.36,13.36,0,0,0,5.14,5.06,14.65,14.65,0,0,0,7.31,1.84A14.36,14.36,0,0,0,524.15,167.83Z"/></svg>
